<svg class="svg-icon" style="width: 1em;height: 1em;vertical-align: middle;fill: currentColor;overflow: hidden;" viewBox="0 0 1024 1024" version="1.1" xmlns="http://www.w3.org/2000/svg"><path d="M520.533333 785.066667c-204.8 0-371.2-166.4-371.2-371.2C149.333333 209.066667 315.733333 42.666667 520.533333 42.666667c204.8 0 371.2 166.4 371.2 371.2 0 204.8-166.4 371.2-371.2 371.2z m0-657.066667a285.866667 285.866667 0 1 0 0 571.733333 285.866667 285.866667 0 0 0 0-571.733333z" fill="#2B4832" /><path d="M588.8 635.733333h-136.533333c-25.6 0-42.666667-17.066667-42.666667-42.666666v-68.266667H341.333333c-25.6 0-42.666667-17.066667-42.666666-42.666667V349.866667c0-25.6 17.066667-42.666667 42.666666-42.666667h68.266667V234.666667c0-25.6 17.066667-42.666667 42.666667-42.666667h132.266666c25.6 0 42.666667 17.066667 42.666667 42.666667v68.266666h68.266667c25.6 0 42.666667 17.066667 42.666666 42.666667v132.266667c0 25.6-17.066667 42.666667-42.666666 42.666666h-68.266667v68.266667c4.266667 29.866667-17.066667 46.933333-38.4 46.933333z m-93.866667-85.333333h46.933334v-68.266667c0-25.6 17.066667-42.666667 42.666666-42.666666h68.266667V392.533333h-68.266667c-25.6 0-42.666667-17.066667-42.666666-42.666666V277.333333h-46.933334v68.266667c0 25.6-17.066667 42.666667-42.666666 42.666667H384v46.933333h68.266667c25.6 0 42.666667 17.066667 42.666666 42.666667v72.533333zM349.866667 1002.666667c-25.6 0-42.666667-17.066667-42.666667-42.666667v-110.933333c-140.8-68.266667-243.2-204.8-264.533333-362.666667-4.266667-21.333333 12.8-46.933333 34.133333-46.933333 25.6-4.266667 46.933333 12.8 51.2 34.133333 21.333333 136.533333 110.933333 256 238.933333 307.2 17.066667 8.533333 25.6 21.333333 25.6 38.4v136.533333c0 25.6-17.066667 46.933333-42.666666 46.933334zM691.2 1002.666667c-25.6 0-42.666667-17.066667-42.666667-42.666667v-136.533333c0-17.066667 8.533333-34.133333 25.6-38.4 128-55.466667 221.866667-170.666667 238.933334-307.2 4.266667-21.333333 25.6-38.4 46.933333-34.133334 21.333333 4.266667 38.4 25.6 34.133333 46.933334-21.333333 157.866667-123.733333 294.4-264.533333 362.666666v110.933334c4.266667 17.066667-17.066667 38.4-38.4 38.4z" fill="#59D189" /></svg>